<?xml version="1.0" ?><svg data-name="Layer 1" id="Layer_1" viewBox="0 0 200 200" xmlns="http://www.w3.org/2000/svg"><path d="M110.37,155.93a35.42,35.42,0,0,1-25.22-10.45L54.52,114.85a35.66,35.66,0,0,1,0-50.44,7.58,7.58,0,0,1,10.74,0L78.52,77.67a7.42,7.42,0,0,1,0,10.49,14.93,14.93,0,0,0,0,21.11l6,6-1.11,1.44,1.27-1.28,6.1,6.1a14.93,14.93,0,0,0,21.11,0,7.44,7.44,0,0,1,10.5,0l13.25,13.26a7.58,7.58,0,0,1,0,10.74A35.41,35.41,0,0,1,110.37,155.93ZM59.89,65.78A4,4,0,0,0,57.06,67a32.07,32.07,0,0,0,0,45.35L87.7,142.94a32.07,32.07,0,0,0,45.35,0,4,4,0,0,0,0-5.65L119.79,124a3.82,3.82,0,0,0-5.4,0,18.54,18.54,0,0,1-26.2,0L76,111.81a18.53,18.53,0,0,1,0-26.19,3.83,3.83,0,0,0,0-5.41L62.71,67A4,4,0,0,0,59.89,65.78Z"/><path d="M96.74,103.26l3.17-45.9a1.81,1.81,0,0,1,1.92-1.67,1.79,1.79,0,0,1,1.67,1.92l-2.88,41.77L142.4,96.5a1.8,1.8,0,1,1,.24,3.59Z"/><path d="M98.68,103.12a1.8,1.8,0,0,1-1.27-3.07L152.86,44.6a1.8,1.8,0,0,1,2.54,2.54L100,102.59A1.8,1.8,0,0,1,98.68,103.12Z"/></svg>