<svg viewBox="0 0 32 32" xml:space="preserve" xmlns="http://www.w3.org/2000/svg"><path d="M31 10v1c0 1.65-1.35 3-3 3h-4c-.43 0-.81-.28-.95-.68L22.28 11H9.72l-.77 2.32c-.14.4-.52.68-.95.68H4c-1.65 0-3-1.35-3-3v-1c0-2.76 2.24-5 5-5h20c2.76 0 5 2.24 5 5z" fill="#e6336b" class="fill-3f51b5"></path><path d="M28 22.32V24c0 1.65-1.35 3-3 3H7c-1.65 0-3-1.35-3-3v-1.68c0-.32.05-.64.15-.94l3.9-11.7c.14-.4.52-.68.95-.68h14c.43 0 .81.28.95.68l3.9 11.69c.1.31.15.63.15.95z" fill="#1ff290" class="fill-2197f3"></path><circle cx="16" cy="18" fill="#ffffff" r="5" class="fill-ffffff"></circle><path d="M19 18c0 1.65-1.35 3-3 3s-3-1.35-3-3 1.35-3 3-3 3 1.35 3 3z" fill="#ffc10a" class="fill-ffc10a"></path></svg>