<svg xmlns="http://www.w3.org/2000/svg" version="1.1" xmlns:xlink="http://www.w3.org/1999/xlink" xmlns:svgjs="http://svgjs.dev/svgjs" width="100%" height="100%" viewBox="0 0 1000 600"><rect width="1000" height="600" x="0" y="0" fill="#100d18fb"/><g><circle r="166.66666666666666" cx="456.461680094401" cy="478.68394434146217" fill="#e24836fb" transform="matrix(0.43133926516053334,0,0,0.43133926516053334,0,93.52481443977584)"/><path d="M393.24544640792647 553.6839014748682L392.15210766187823 531.3919392637742L408.12700156247155 527.0185842795813L408.12700156247155 443.6818754141291Q408.12700156247155 438.0025880388231 407.24625646148826 436.14998627468583Q406.36551136050497 434.2973845105486 402.66030783223044 432.748487953647L402.66030783223044 432.748487953647L391.3017330816185 426.4314196431462L392.60766547273164 408.6950355405864Q409.2203403085197 406.08317075836015 424.10189546306475 404.86834992941766Q438.95308009688625 403.6838996211988 456.02131274352774 403.6838996211988L456.02131274352774 403.6838996211988Q479.61920734573494 403.6838996211988 493.9540931272559 408.6950355405864Q508.2889789087768 413.7365419806976 514.9401229472369 424.45733579611476Q521.6216375064203 435.1781296115319 521.6216375064203 452.8841431933682L521.6216375064203 452.8841431933682Q521.6216375064203 475.84425686038054 505.1000742328029 488.96432181295904Q488.6088814799091 502.08438676553754 459.93910991686715 502.08438676553754L459.93910991686715 502.08438676553754L447.9123837103369 501.62882895468414L447.9123837103369 518.2718743111957Q447.9123837103369 523.4956038756483 448.7020172491495 525.04450043255Q449.4612802672385 526.5630264687279 452.5287028603182 528.1119230256296L452.5287028603182 528.1119230256296L465.86136145796166 535.977887893032L464.9806163569784 553.6839014748682L393.24544640792647 553.6839014748682ZM461.9131937638987 477.818340707412Q473.727326325364 477.818340707412 479.19402005560505 475.38869904952713L479.19402005560505 475.38869904952713Q481.5932911927664 464.6982757548335 481.5932911927664 452.8841431933682L481.5932911927664 452.8841431933682Q481.5932911927664 439.9766718858546 476.67326683554944 434.5099781556135Q471.75324247833254 429.0432844253725 460.81985501785044 429.0432844253725L460.81985501785044 429.0432844253725Q457.114651489576 429.0432844253725 447.9123837103369 429.9240295263558L447.9123837103369 429.9240295263558L447.9123837103369 476.4820377955753Q453.83463525143134 477.818340707412 461.9131937638987 477.818340707412L461.9131937638987 477.818340707412Z " fill="#100d18fb" transform="matrix(0.43133926516053334,0,0,0.43133926516053334,0,93.52481443977584)"/><path d="M708.3529362228363 550.4924068365618L707.2891064803734 528.8021004207914L722.8328410508029 524.54678145094L722.8328410508029 443.45931441432685Q722.8328410508029 437.9333099187559 721.9758670915968 436.13070952180493Q721.1188931323906 434.32810912485405 717.5136923384886 432.8210169896983L717.5136923384886 432.8210169896983L706.4616833473468 426.6744451443574L707.7323688730663 409.4167626555155Q723.8966707932658 406.87539160407647 738.3765756212324 405.69335855689553Q752.8269296230195 404.5408763358941 769.4344939359119 404.5408763358941L769.4344939359119 404.5408763358941Q792.3954858774017 404.5408763358941 806.3434758341369 409.4167626555155Q820.2914657908722 414.32219980131646 826.7630967241879 424.7536414426883Q833.2642784836831 435.1850830840602 833.2642784836831 452.41321474672253L833.2642784836831 452.41321474672253Q833.2642784836831 474.7536393384425 817.1886290420222 487.51959624799673Q801.1425304265408 500.285553157551 773.2465505130705 500.285553157551L773.2465505130705 500.285553157551L761.544423345979 499.84229076485815L761.544423345979 516.0361435112372Q761.544423345979 521.1188856141152 762.3127448266466 522.625977749271Q763.0515154811347 524.1035190582471 766.0361489252666 525.6106111934027L766.0361489252666 525.6106111934027L779.0089616180775 533.2642751738995L778.1519876588713 550.4924068365618L708.3529362228363 550.4924068365618ZM775.1673542147395 476.67444304011156Q786.6626255985742 476.67444304011156 791.9817743108885 474.3103769457496L791.9817743108885 474.3103769457496Q794.3162895790708 463.90848613055726 794.3162895790708 452.41321474672253L794.3162895790708 452.41321474672253Q794.3162895790708 439.854113620425 789.529055737988 434.5349649081107Q784.7418218969052 429.21581619579644 774.1035244722766 429.21581619579644L774.1035244722766 429.21581619579644Q770.4983236783747 429.21581619579644 761.544423345979 430.07279015500256L761.544423345979 430.07279015500256L761.544423345979 475.3742066882125Q767.3068344509861 476.67444304011156 775.1673542147395 476.67444304011156L775.1673542147395 476.67444304011156ZM844.9664056507745 550.4924068365618L843.9025759083116 528.8021004207914L859.4167596525616 524.54678145094L859.4167596525616 443.04560284781354Q859.4167596525616 437.5195983522426 858.5893365195349 435.7169979552916Q857.7323625603287 433.8848467321612 854.0976109402474 432.40730542318494L854.0976109402474 432.40730542318494L843.0456019491055 426.0243269684079L844.1094316915684 407.08224738733315L912.4013909924477 407.08224738733315L913.2583649516538 428.80210462928306L897.9510369906606 433.0574235991345L897.9510369906606 516.0361435112372Q897.9510369906606 521.1188856141152 898.6898076451487 522.625977749271Q899.4285782996368 524.1035190582471 902.6200675270253 525.6106111934027L902.6200675270253 525.6106111934027L913.4652207349105 532.2004454314367L912.8446533851405 550.4924068365618L844.9664056507745 550.4924068365618ZM924.9604921187453 550.4924068365618L923.482950809769 524.1035190582471L990.0609621922359 435.39193886731687L960.0668736200195 437.5195983522426L943.2524535238705 455.8115597573678L926.4380334277214 452.6200705299792L932.2004445327285 407.08224738733315L1038.9971303455272 407.08224738733315L1041.1247898304532 431.3434756807221L972.6259747463171 522.182715356578L1013.6720723096755 519.641344305139L1028.5656887041555 500.69926472406434L1046.4439385427672 504.7477279106591Q1042.8387377488652 536.2489086180315 1040.7110782639397 550.4924068365618L1040.7110782639397 550.4924068365618L924.9604921187453 550.4924068365618ZM1057.939209926602 550.4924068365618L1056.461668617626 524.1035190582471L1123.0396800000926 435.39193886731687L1093.0455914278764 437.5195983522426L1076.2311713317272 455.8115597573678L1059.4167512355784 452.6200705299792L1065.1791623405852 407.08224738733315L1171.975848153384 407.08224738733315L1174.10350763831 431.3434756807221L1105.6046925541737 522.182715356578L1146.6507901175323 519.641344305139L1161.5444065120123 500.69926472406434L1179.422656350624 504.7477279106591Q1175.817455556722 536.2489086180315 1173.6897960717965 550.4924068365618L1173.6897960717965 550.4924068365618L1057.939209926602 550.4924068365618ZM1187.7264385070703 550.4924068365618L1186.869464547864 531.5503272554872L1193.4592987858978 527.5018640688924L1243.2524408983954 406.87539160407647L1279.4226521421324 403.6839023766879L1321.9758418406464 518.5775145626762Q1324.1035013255723 524.1035190582471 1324.9604752847786 525.8174669766595Q1325.8174492439848 527.5018640688924 1328.151964512167 530.4864975130242L1328.151964512167 530.4864975130242L1331.993571915505 535.3919346588252L1330.693335563606 550.4924068365618L1270.9120142024294 550.4924068365618L1268.784354717504 530.2796417297675L1283.8848268952406 526.4380343264295L1277.0881368739501 504.95458369391577L1233.8848289994867 505.60470186986527L1229.2157984631217 518.9912261291895Q1228.5656802871722 520.9120298308585 1228.5656802871722 522.182715356578L1228.5656802871722 522.182715356578Q1228.5656802871722 523.6898074917337 1229.0975951584037 524.428578146222Q1229.6295100296352 525.16734880071 1230.9297463815342 525.6106111934027L1230.9297463815342 525.6106111934027L1245.5869561665777 531.7571830387437L1243.4592966816522 550.4924068365618L1187.7264385070703 550.4924068365618ZM1269.848184459967 482.2004475356825L1256.4616602006427 440.06096940368167L1242.3954669391892 480.929762009963L1269.848184459967 482.2004475356825ZM1341.7748953809273 550.4924068365618L1340.7110656384648 528.8021004207914L1356.2252493827145 524.54678145094L1356.2252493827145 443.45931441432685Q1356.2252493827145 437.9333099187559 1355.397826249688 436.13070952180493Q1354.5408522904818 434.32810912485405 1350.9061006704005 432.8210169896983L1350.9061006704005 432.8210169896983L1339.8540916792585 426.6744451443574L1341.1247772049778 409.20990687225884Q1373.0396694788637 404.5408763358941 1402.620046484567 404.5408763358941L1402.620046484567 404.5408763358941Q1425.6105892522364 404.5408763358941 1439.6472316875102 409.1212543937203Q1453.683874122784 413.67208162536696 1460.185055882279 423.3647526122507Q1466.6566868155946 433.0574235991345 1466.6566868155946 449.0148697360773L1466.6566868155946 449.0148697360773Q1466.6566868155946 462.1945382121449 1459.8599967943042 472.0940649822854Q1453.0337559468344 481.9935917524258 1440.5042056467164 487.3127404647401L1440.5042056467164 487.3127404647401L1474.5467574055278 542.1886246801157L1474.3103507960914 550.4924068365618L1435.5987685009154 550.4924068365618L1404.097587793543 493.6957189195172L1394.7595267208135 493.45931231008103L1394.7595267208135 517.3068290369567Q1394.7595267208135 522.4191219660142 1395.4982973753017 523.7784599702724Q1396.23706802979 525.16734880071 1399.2217014739217 526.8812967191224L1399.2217014739217 526.8812967191224L1408.3529067633945 532.2004454314367L1407.525483630368 550.4924068365618L1341.7748953809273 550.4924068365618ZM1408.3529067633945 469.6413464093849Q1419.6413223639724 469.6413464093849 1424.960471076287 467.5136869244592L1424.960471076287 467.5136869244592Q1427.0881305612124 459.8600229439625 1427.0881305612124 449.221725519334L1427.0881305612124 449.221725519334Q1427.0881305612124 438.5834280947054 1422.5077525033862 434.1212533415973Q1417.92737444556 429.62952776230975 1407.2890770209315 429.62952776230975L1407.2890770209315 429.62952776230975Q1401.3493609588472 429.62952776230975 1395.173238287327 430.2796459382593L1395.173238287327 430.2796459382593L1395.173238287327 468.3706608836654Q1400.6992427828977 469.6413464093849 1408.3529067633945 469.6413464093849L1408.3529067633945 469.6413464093849ZM1482.6141329525376 550.4924068365618L1481.7571589933314 531.5503272554872L1488.3765440575448 527.5018640688924L1538.1401353438628 406.87539160407647L1574.3103465875997 403.6839023766879L1616.8635362861137 518.5775145626762Q1618.9911957710397 524.1035190582471 1619.848169730246 525.8174669766595Q1620.7051436894521 527.5018640688924 1623.0396589576344 530.4864975130242L1623.0396589576344 530.4864975130242L1626.8812663609724 535.3919346588252L1625.6105808352531 550.4924068365618L1565.7997086478968 550.4924068365618L1563.6720491629712 530.2796417297675L1578.8020721668872 526.4380343264295L1571.9758313194175 504.95458369391577L1528.8020742711333 505.60470186986527L1524.103492908589 518.9912261291895Q1523.4829255588188 520.9120298308585 1523.4829255588188 522.182715356578L1523.4829255588188 522.182715356578Q1523.4829255588188 523.6898074917337 1524.0148404300503 524.428578146222Q1524.5467553012818 525.16734880071 1525.817440827001 525.6106111934027L1525.817440827001 525.6106111934027L1540.5042014382248 531.7571830387437L1538.3765419532988 550.4924068365618L1482.6141329525376 550.4924068365618ZM1564.7358789054342 482.2004475356825L1551.34935464611 440.06096940368167L1537.3127122108363 480.929762009963L1564.7358789054342 482.2004475356825ZM1699.2216888484463 553.6838960639504Q1666.863534181868 553.6838960639504 1649.428546735949 533.8848425236695Q1631.9935592900301 514.115339809568 1631.9935592900301 477.94512856583106L1631.9935592900301 477.94512856583106Q1631.9935592900301 454.9545857981616 1640.3859939250146 438.2583690067307Q1648.7784285599996 421.56215221529976 1664.7358746969426 412.7264551876222Q1680.693320833885 403.8907581599446 1702.620033859092 403.8907581599446L1702.620033859092 403.8907581599446Q1727.5018295022505 403.8907581599446 1753.8907172805652 415.17917376052264L1753.8907172805652 415.17917376052264Q1751.9699135788965 434.32810912485405 1747.714594609045 457.52550767578015L1747.714594609045 457.52550767578015L1731.5502926888453 458.589337418243L1716.863532077622 437.07633595954974Q1707.5254710048926 434.32810912485405 1696.2370554043146 434.32810912485405L1696.2370554043146 434.32810912485405Q1687.726417464612 434.32810912485405 1680.0727534841153 435.8056504338302L1680.0727534841153 435.8056504338302Q1676.67440847347 442.395484671864 1674.546748988544 453.2701887059287Q1672.4190895036186 464.11534191381395 1672.4190895036186 475.16735090495587L1672.4190895036186 475.16735090495587Q1672.4190895036186 498.7784610223953 1681.0183799218598 510.18507992769145Q1689.6472211662808 521.562148006808 1708.3528941379195 521.9758595733215L1708.3528941379195 521.9758595733215Q1715.7997023351595 521.9758595733215 1727.2063212404555 519.7595476098571Q1738.5833893195718 517.5136848202134 1749.4285425274575 513.9084840263115L1749.4285425274575 513.9084840263115L1756.0183767654912 537.3127383604942Q1744.9663677743492 544.523139948298 1729.333980725381 549.1035180061242Q1713.672042850234 553.6838960639504 1699.2216888484463 553.6838960639504L1699.2216888484463 553.6838960639504ZM1770.291425810201 550.4924068365618L1769.2275960677384 528.1519822448419L1782.6141203270627 524.54678145094L1782.6141203270627 443.04560284781354Q1782.6141203270627 437.5195983522426 1781.8753496725744 435.7169979552916Q1781.1365790180862 433.8848467321612 1777.738234007441 432.40730542318494L1777.738234007441 432.40730542318494L1768.7843336750452 427.2950124941274L1769.4344518509947 407.08224738733315L1835.8056074502051 407.08224738733315L1836.869437192668 428.80210462928306L1821.1188468389819 433.0574235991345L1821.1188468389819 473.0396914200301L1858.3528878251818 432.8210169896983Q1859.209861784388 431.9935938566717 1859.209861784388 430.48650172151594L1859.209861784388 430.48650172151594Q1859.209861784388 429.42267197905306 1858.5892944346178 428.56569801984693L1858.5892944346178 428.56569801984693L1852.4131717630976 421.11888982260695L1854.7476870312798 407.08224738733315L1904.0975667510843 407.08224738733315L1906.668488628703 421.56215221529976L1857.9391762586688 473.6898095959796L1910.0668336393483 540.9179391543962L1910.0668336393483 550.4924068365618L1869.434447642503 550.4924068365618L1821.1188468389819 486.45576650553386L1821.1188468389819 516.0361435112372Q1821.1188468389819 520.705174047602 1821.8871683196494 522.4191219660142Q1822.6259389741376 524.1035190582471 1825.8174282015261 525.8174669766595L1825.8174282015261 525.8174669766595L1837.0762929759248 532.2004454314367L1836.2488698428979 550.4924068365618L1770.291425810201 550.4924068365618ZM1965.3859802474167 553.0337778880009Q1941.9817259132342 553.0337778880009 1917.9273534031017 545.8233763001971L1917.9273534031017 545.8233763001971Q1918.9911831455643 524.7536372341967 1921.3552492399263 506.66853161232814L1921.3552492399263 506.66853161232814L1937.7264069433827 503.4770423849396L1948.3647043680107 521.562148006808Q1961.1306612775652 526.0243227599162 1970.911984742988 526.0243227599162L1970.911984742988 526.0243227599162Q1974.3103297536331 526.0243227599162 1985.3918895709544 524.1035190582471L1985.3918895709544 524.1035190582471Q1985.8056011374674 519.8482000883957 1985.8056011374674 518.3706587794195L1985.8056011374674 518.3706587794195Q1985.8056011374674 513.258365850362 1984.1212040452347 510.59879149420476Q1982.4072561268226 507.93921713804764 1976.6743958479951 504.629524605941Q1970.911984742988 501.34938290001384 1956.018368348508 494.7595486619801L1956.018368348508 494.7595486619801Q1937.7264069433827 485.80564832958436 1929.6294805701932 475.4924099929306Q1921.562105023183 465.1791716562768 1921.562105023183 451.14252922100303L1921.562105023183 451.14252922100303Q1921.562105023183 429.21581619579644 1936.455721417663 416.8635708527555Q1951.349337812143 404.5408763358941 1977.294963197765 404.5408763358941L1977.294963197765 404.5408763358941Q1989.8540643240626 404.5408763358941 2002.2949621456419 406.9935949087946Q2014.7358599672216 409.4167626555155 2024.1034718661303 413.67208162536696L2024.1034718661303 413.67208162536696Q2023.6897602996173 425.61061540189456 2022.1826681644616 443.25245863107017L2022.1826681644616 443.25245863107017L2021.5621008146913 452.41321474672253L2006.0183662442619 454.7477300149049L1989.8540643240626 434.1212533415973Q1982.2004003435654 431.75718724723544 1970.7051289597312 431.75718724723544L1970.7051289597312 431.75718724723544Q1963.465176545748 431.75718724723544 1959.859975751846 433.0574235991345L1959.859975751846 433.0574235991345Q1958.796146009383 437.3127425689859 1958.796146009383 439.6472578371683L1958.796146009383 439.6472578371683Q1958.796146009383 444.31628837353304 1961.1306612775652 447.83283668889635Q1963.465176545748 451.3493850042597 1969.4344434340114 455.07278910287965Q1975.3741594960957 458.79619320149965 1987.0762866631871 464.32219769707064L1987.0762866631871 464.32219769707064Q2004.0975625425926 472.4191240702601 2012.844607091732 478.56569591560105Q2021.5621008146913 484.7418185871215 2025.0786491300546 491.4498561298734Q2028.5656466192386 498.1578936726253 2028.5656466192386 507.73236135479095L2028.5656466192386 507.73236135479095Q2028.5656466192386 528.8021004207914 2011.780777349269 540.9179391543962Q1994.9663572531203 553.0337778880009 1965.3859802474167 553.0337778880009L1965.3859802474167 553.0337778880009Z " fill="#e24836fb" transform="matrix(0.43133926516053334,0,0,0.43133926516053334,0,93.52481443977584)"/></g></svg>