<svg xmlns="http://www.w3.org/2000/svg" version="1.1" xmlns:xlink="http://www.w3.org/1999/xlink" xmlns:svgjs="http://svgjs.dev/svgjs" width="100%" height="100%" viewBox="0 0 1000 600"><rect width="1000" height="600" x="0" y="0" fill="#100d18fb"/><g><circle r="166.66666666666666" cx="436.5857950846354" cy="458.8079414257286" fill="#e24836fb" transform="matrix(0.463101784562536,0,0,0.4631017845625359,0,87.52523028745935)"/><path d="M404.48180486347866 533.8079019037759L398.8849832463422 533.8079019037759L398.8849832463422 383.80790032228106L404.48180486347866 383.80790032228106L404.48180486347866 533.8079019037759ZM379.8661542325545 533.8079019037759L374.269332615418 533.8079019037759L374.269332615418 383.80790032228106L379.8661542325545 383.80790032228106L379.8661542325545 533.8079019037759ZM392.1739795480166 533.8079019037759L386.5771579308801 533.8079019037759L386.5771579308801 383.80790032228106L392.1739795480166 383.80790032228106L392.1739795480166 533.8079019037759ZM455.06048910723024 471.1286820340858L411.21871977299475 471.1286820340858L411.21871977299475 465.5318604169493L455.06048910723024 465.5318604169493Q465.6840856953133 465.5318604169493 474.3643414441129 460.86784240266894Q483.0445971929125 456.20382438838857 488.1750170086209 447.6272134843508Q493.30543682432926 439.02469136912254 493.30543682432926 427.4682911781834L493.30543682432926 427.4682911781834Q493.30543682432926 415.91189098724425 488.1750170086209 407.309368872016Q483.0445971929125 398.7327579679782 474.3643414441129 394.0687399536979Q465.6840856953133 389.4047219394175 455.06048910723024 389.4047219394175L455.06048910723024 389.4047219394175L411.21871977299475 389.4047219394175L411.21871977299475 383.80790032228106L455.06048910723024 383.80790032228106Q467.1869359443592 383.80790032228106 477.1627522526811 389.32698830584616Q487.138568561003 394.82016507822084 493.0204135012344 404.6146029082096Q498.90225844146573 414.40904073819837 498.90225844146573 427.4682911781834L498.90225844146573 427.4682911781834Q498.90225844146573 440.52754161816847 493.0204135012344 450.3219794481572Q487.138568561003 460.116417278146 477.1627522526811 465.6095940505207Q467.1869359443592 471.1286820340858 455.06048910723024 471.1286820340858L455.06048910723024 471.1286820340858ZM455.06048910723024 458.8208567186237L411.21871977299475 458.8208567186237L411.21871977299475 453.22403510148723L455.06048910723024 453.22403510148723Q465.86546417364644 453.22403510148723 473.4315378412568 446.40938655839983Q480.97170029767676 439.5947380153124 480.97170029767676 427.4682911781834L480.97170029767676 427.4682911781834Q480.97170029767676 415.34184434105447 473.4315378412568 408.527195797967Q465.86546417364644 401.7125472548796 455.06048910723024 401.7125472548796L455.06048910723024 401.7125472548796L411.21871977299475 401.7125472548796L411.21871977299475 396.11572563774314L455.06048910723024 396.11572563774314Q463.81847848960115 396.11572563774314 470.9181503557835 399.9505848939292Q477.9919110107754 403.78544415011527 482.29317206838954 410.7814711715359Q486.5685219148132 417.77749819295644 486.5685219148132 427.4682911781834L486.5685219148132 427.4682911781834Q486.5685219148132 437.1590841634104 482.29317206838954 444.15511118483096Q477.9919110107754 451.1511382062515 470.9181503557835 454.9859974624376Q463.81847848960115 458.8208567186237 455.06048910723024 458.8208567186237L455.06048910723024 458.8208567186237ZM455.06048910723024 446.48712019197114L411.21871977299475 446.48712019197114L411.21871977299475 440.89029857483473L455.06048910723024 440.89029857483473Q460.6573107243667 440.89029857483473 464.64763724769546 437.62548596483845Q468.6638749822147 434.36067335484216 468.6638749822147 427.4682911781834L468.6638749822147 427.4682911781834Q468.6638749822147 420.36861931200104 464.64763724769546 417.2074515467666Q460.6573107243667 414.0462837815321 455.06048910723024 414.0462837815321L455.06048910723024 414.0462837815321L411.21871977299475 414.0462837815321L411.21871977299475 408.44946216439564L455.06048910723024 408.44946216439564Q463.0670533650782 408.44946216439564 468.6638749822147 413.2948586570092Q474.2606965993511 418.14025514962265 474.2606965993511 427.4682911781834L474.2606965993511 427.4682911781834Q474.2606965993511 436.79632720674414 468.6638749822147 441.64172369935767Q463.0670533650782 446.48712019197114 455.06048910723024 446.48712019197114L455.06048910723024 446.48712019197114Z " fill="#100d18fb" transform="matrix(0.463101784562536,0,0,0.4631017845625359,0,87.52523028745935)"/><path d="M715.7115231563445 531.1101494083098L710.3160196836678 531.1101494083098L710.3160196836678 386.50566050402807L715.7115231563445 386.50566050402807L715.7115231563445 531.1101494083098ZM691.9812995496649 531.1101494083098L686.5857960769882 531.1101494083098L686.5857960769882 386.50566050402807L691.9812995496649 386.50566050402807L691.9812995496649 531.1101494083098ZM703.8464113530047 531.1101494083098L698.4509078803281 531.1101494083098L698.4509078803281 386.50566050402807L703.8464113530047 386.50566050402807L703.8464113530047 531.1101494083098ZM764.4708878723849 470.68550635088064L722.2061106697514 470.68550635088064L722.2061106697514 465.29000287820406L764.4708878723849 465.29000287820406Q774.7123527973729 465.29000287820406 783.0803790165704 460.7937499843069Q791.4484052357678 456.2974970904097 796.3942834190548 448.0293876021877Q801.3401616023417 439.7362989312218 801.3401616023417 428.59558342745436L801.3401616023417 428.59558342745436Q801.3401616023417 417.45486792368695 796.3942834190548 409.16177925272103Q791.4484052357678 400.893669764499 783.0803790165704 396.3974168706019Q774.7123527973729 391.9011639767047 764.4708878723849 391.9011639767047L764.4708878723849 391.9011639767047L722.2061106697514 391.9011639767047L722.2061106697514 386.50566050402807L764.4708878723849 386.50566050402807Q776.1611453965176 386.50566050402807 785.7781307529087 391.8262264284731Q795.3951161092998 397.12181317017416 801.065390592159 406.5639442473582Q806.7356650750182 416.0060753245423 806.7356650750182 428.59558342745436L806.7356650750182 428.59558342745436Q806.7356650750182 441.18509153036644 801.065390592159 450.6272226075505Q795.3951161092998 460.06935368473455 785.7781307529087 465.3649404264357Q776.1611453965176 470.68550635088064 764.4708878723849 470.68550635088064L764.4708878723849 470.68550635088064ZM764.4708878723849 458.8203945475409L722.2061106697514 458.8203945475409L722.2061106697514 453.4248910748643L764.4708878723849 453.4248910748643Q774.88720707658 453.4248910748643 782.1811284377909 446.85536601322565Q789.450070616258 440.28584095158703 789.450070616258 428.59558342745436L789.450070616258 428.59558342745436Q789.450070616258 416.90532590332174 782.1811284377909 410.33580084168307Q774.88720707658 403.76627578004445 764.4708878723849 403.76627578004445L764.4708878723849 403.76627578004445L722.2061106697514 403.76627578004445L722.2061106697514 398.3707723073678L764.4708878723849 398.3707723073678Q772.913851639814 398.3707723073678 779.7581477116353 402.0676913534611Q786.5774646007126 405.7646103995543 790.7240089361956 412.50898974040007Q794.8455740889347 419.2533690812458 794.8455740889347 428.59558342745436L794.8455740889347 428.59558342745436Q794.8455740889347 437.93779777366296 790.7240089361956 444.6821771145087Q786.5774646007126 451.42655645535444 779.7581477116353 455.1234755014477Q772.913851639814 458.8203945475409 764.4708878723849 458.8203945475409L764.4708878723849 458.8203945475409ZM764.4708878723849 446.93030356145727L722.2061106697514 446.93030356145727L722.2061106697514 441.5348000887807L764.4708878723849 441.5348000887807Q769.8663913450615 441.5348000887807 773.7131854876179 438.38742306305267Q777.5849588129182 435.24004603732465 777.5849588129182 428.59558342745436L777.5849588129182 428.59558342745436Q777.5849588129182 421.7512873556331 773.7131854876179 418.7038270608806Q769.8663913450615 415.6563667661281 764.4708878723849 415.6563667661281L764.4708878723849 415.6563667661281L722.2061106697514 415.6563667661281L722.2061106697514 410.26086329345145L764.4708878723849 410.26086329345145Q772.1894553402417 410.26086329345145 777.5849588129182 414.93197046655575Q782.9804622855949 419.60307763966006 782.9804622855949 428.59558342745436L782.9804622855949 428.59558342745436Q782.9804622855949 437.5880892152487 777.5849588129182 442.259196388353Q772.1894553402417 446.93030356145727 764.4708878723849 446.93030356145727L764.4708878723849 446.93030356145727ZM849.3501508360658 531.1101494083098L843.9546473633892 531.1101494083098L843.9546473633892 386.50566050402807L849.3501508360658 386.50566050402807L849.3501508360658 531.1101494083098ZM825.6199272293863 531.1101494083098L820.2244237567098 531.1101494083098L820.2244237567098 386.50566050402807L825.6199272293863 386.50566050402807L825.6199272293863 531.1101494083098ZM837.4850390327261 531.1101494083098L832.0895355600495 531.1101494083098L832.0895355600495 386.50566050402807L837.4850390327261 386.50566050402807L837.4850390327261 531.1101494083098ZM892.3393243382716 531.1101494083098L886.0445702868157 531.1101494083098L975.7947738855519 386.50566050402807L982.0895279370079 386.50566050402807L892.3393243382716 531.1101494083098ZM864.6374106753163 531.1101494083098L858.3426566238602 531.1101494083098L948.0928602225965 386.50566050402807L954.3876142740527 386.50566050402807L864.6374106753163 531.1101494083098ZM878.4758779154221 531.1101494083098L872.181123863966 531.1101494083098L961.9313274627023 386.50566050402807L968.2260815141583 386.50566050402807L878.4758779154221 531.1101494083098ZM937.3018532772434 391.9011639767047L871.2818732851866 391.9011639767047L871.2818732851866 386.50566050402807L940.524167851203 386.50566050402807L937.3018532772434 391.9011639767047ZM929.9329943678007 403.76627578004445L871.2818732851866 403.76627578004445L871.2818732851866 398.3707723073678L933.3301632209675 398.3707723073678L929.9329943678007 403.76627578004445ZM922.5391562756143 415.6563667661281L871.2818732851866 415.6563667661281L871.2818732851866 410.26086329345145L925.9613043115249 410.26086329345145L922.5391562756143 415.6563667661281ZM969.1253320929378 507.37992580163035L913.5466504878199 507.37992580163035L916.9687985237306 501.98442232895377L969.1253320929378 501.98442232895377L969.1253320929378 507.37992580163035ZM969.1253320929378 519.2450376049701L906.1777915783774 519.2450376049701L909.599939614288 513.8495341322935L969.1253320929378 513.8495341322935L969.1253320929378 519.2450376049701ZM969.1253320929378 531.1101494083098L898.9837869481419 531.1101494083098L902.2310807048455 525.7146459356333L969.1253320929378 525.7146459356333L969.1253320929378 531.1101494083098ZM1014.2627153111166 531.1101494083098L1007.9679612596605 531.1101494083098L1097.718164858397 386.50566050402807L1104.012918909853 386.50566050402807L1014.2627153111166 531.1101494083098ZM986.585780830905 531.1101494083098L980.2910267794491 531.1101494083098L1070.0162511954413 386.50566050402807L1076.3110052468974 386.50566050402807L986.585780830905 531.1101494083098ZM1000.4242480710109 531.1101494083098L994.1294940195547 531.1101494083098L1083.8796976182912 386.50566050402807L1090.1744516697472 386.50566050402807L1000.4242480710109 531.1101494083098ZM1059.2252442500885 391.9011639767047L993.2302434407753 391.9011639767047L993.2302434407753 386.50566050402807L1062.4725380067916 386.50566050402807L1059.2252442500885 391.9011639767047ZM1051.8563853406458 403.76627578004445L993.2302434407753 403.76627578004445L993.2302434407753 398.3707723073678L1055.2785333765564 398.3707723073678L1051.8563853406458 403.76627578004445ZM1044.4875264312032 415.6563667661281L993.2302434407753 415.6563667661281L993.2302434407753 410.26086329345145L1047.9096744671137 410.26086329345145L1044.4875264312032 415.6563667661281ZM1091.0737022485264 507.37992580163035L1035.4950206434087 507.37992580163035L1038.9171686793193 501.98442232895377L1091.0737022485264 501.98442232895377L1091.0737022485264 507.37992580163035ZM1091.0737022485264 519.2450376049701L1028.126161733966 519.2450376049701L1031.5483097698766 513.8495341322935L1091.0737022485264 513.8495341322935L1091.0737022485264 519.2450376049701ZM1091.0737022485264 531.1101494083098L1020.9321571037307 531.1101494083098L1024.1544716776903 525.7146459356333L1091.0737022485264 525.7146459356333L1091.0737022485264 531.1101494083098ZM1133.1636251719528 531.1101494083098L1127.3934339581183 531.1101494083098L1179.7248218065324 386.50566050402807L1185.4950130203674 386.50566050402807L1133.1636251719528 531.1101494083098ZM1107.9846089661287 531.1101494083098L1102.2144177522941 531.1101494083098L1154.5458056007083 386.50566050402807L1160.1411425353358 386.50566050402807L1107.9846089661287 531.1101494083098ZM1120.5741170690408 531.1101494083098L1114.8039258552062 531.1101494083098L1166.9604594244133 386.50566050402807L1172.905504917455 386.50566050402807L1120.5741170690408 531.1101494083098ZM1238.5507971683537 531.1101494083098L1232.7806059545192 531.1101494083098L1185.8447215787814 401.4432117848643L1188.717327594327 393.3499565758493L1238.5507971683537 531.1101494083098ZM1225.9612890654416 531.1101494083098L1220.191097851607 531.1101494083098L1179.7248218065324 419.05353561929485L1182.4225735428709 410.78542613107277L1225.9612890654416 531.1101494083098ZM1213.3717809625296 531.1101494083098L1207.601589748695 531.1101494083098L1173.4300677550764 436.5139843572622L1176.3276529533655 428.4207291482473L1213.3717809625296 531.1101494083098ZM1184.4209081623808 483.2750144537927L1156.7189944994252 483.2750144537927L1158.6923499361915 477.87951098111614L1182.4225735428709 477.87951098111614L1184.4209081623808 483.2750144537927ZM1188.717327594327 495.31498053633965L1152.3975958847354 495.31498053633965L1154.3709513215013 489.919477063663L1186.743972157561 489.919477063663L1188.717327594327 495.31498053633965ZM1193.0387262090167 507.1800923396794L1148.0761972700452 507.1800923396794L1150.049552706811 501.78458886700275L1191.0653707722508 501.78458886700275L1193.0387262090167 507.1800923396794ZM1280.266032350622 531.1101494083098L1274.8705288779456 531.1101494083098L1274.8705288779456 386.50566050402807L1280.266032350622 386.50566050402807L1280.266032350622 531.1101494083098ZM1256.5358087439427 531.1101494083098L1251.1403052712658 531.1101494083098L1251.1403052712658 386.50566050402807L1256.5358087439427 386.50566050402807L1256.5358087439427 531.1101494083098ZM1268.4009205472826 531.1101494083098L1263.0054170746057 531.1101494083098L1263.0054170746057 386.50566050402807L1268.4009205472826 386.50566050402807L1268.4009205472826 531.1101494083098ZM1329.0004178839185 470.68550635088064L1286.735640681285 470.68550635088064L1286.735640681285 465.29000287820406L1329.0004178839185 465.29000287820406Q1339.2668619916503 465.29000287820406 1347.6348882108482 460.7937499843069Q1355.9779352473015 456.2974970904097 1360.9238134305883 448.0293876021877Q1365.8696916138756 439.7362989312218 1365.8696916138756 428.59558342745436L1365.8696916138756 428.59558342745436Q1365.8696916138756 417.45486792368695 1360.9238134305883 409.16177925272103Q1355.9779352473015 400.893669764499 1347.6348882108482 396.3974168706019Q1339.2668619916503 391.9011639767047 1329.0004178839185 391.9011639767047L1329.0004178839185 391.9011639767047L1286.735640681285 391.9011639767047L1286.735640681285 386.50566050402807L1329.0004178839185 386.50566050402807Q1340.690675408051 386.50566050402807 1350.3326399471862 391.8262264284731Q1359.9496253035777 397.12181317017416 1365.6198997864367 406.5639442473582Q1371.265195086552 416.0060753245423 1371.265195086552 428.59558342745436L1371.265195086552 428.59558342745436Q1371.265195086552 441.18509153036644 1365.6198997864367 450.6272226075505Q1359.9496253035777 460.06935368473455 1350.3326399471862 465.3649404264357Q1340.690675408051 470.68550635088064 1329.0004178839185 470.68550635088064L1329.0004178839185 470.68550635088064ZM1329.0004178839185 458.8203945475409L1286.735640681285 458.8203945475409L1286.735640681285 453.4248910748643L1329.0004178839185 453.4248910748643Q1339.4417162708573 453.4248910748643 1346.7356376320686 446.85536601322565Q1354.0045798105357 440.28584095158703 1354.0045798105357 428.59558342745436L1354.0045798105357 428.59558342745436Q1354.0045798105357 416.90532590332174 1346.7356376320686 410.33580084168307Q1339.4417162708573 403.76627578004445 1329.0004178839185 403.76627578004445L1329.0004178839185 403.76627578004445L1286.735640681285 403.76627578004445L1286.735640681285 398.3707723073678L1329.0004178839185 398.3707723073678Q1337.4683608340915 398.3707723073678 1344.287677723169 402.0676913534611Q1351.1319737949902 405.7646103995543 1355.278518130473 412.50898974040007Q1359.400083283212 419.2533690812458 1359.400083283212 428.59558342745436L1359.400083283212 428.59558342745436Q1359.400083283212 437.93779777366296 1355.278518130473 444.6821771145087Q1351.1319737949902 451.42655645535444 1344.287677723169 455.1234755014477Q1337.4683608340915 458.8203945475409 1329.0004178839185 458.8203945475409L1329.0004178839185 458.8203945475409ZM1329.0004178839185 446.93030356145727L1286.735640681285 446.93030356145727L1286.735640681285 441.5348000887807L1329.0004178839185 441.5348000887807Q1334.395921356595 441.5348000887807 1338.2676946818956 438.38742306305267Q1342.1394680071958 435.24004603732465 1342.1394680071958 428.59558342745436L1342.1394680071958 428.59558342745436Q1342.1394680071958 421.7512873556331 1338.2676946818956 418.7038270608806Q1334.395921356595 415.6563667661281 1329.0004178839185 415.6563667661281L1329.0004178839185 415.6563667661281L1286.735640681285 415.6563667661281L1286.735640681285 410.26086329345145L1329.0004178839185 410.26086329345145Q1336.7439645345194 410.26086329345145 1342.1394680071958 414.93197046655575Q1347.5349714798726 419.60307763966006 1347.5349714798726 428.59558342745436L1347.5349714798726 428.59558342745436Q1347.5349714798726 437.5880892152487 1342.1394680071958 442.259196388353Q1336.7439645345194 446.93030356145727 1329.0004178839185 446.93030356145727L1329.0004178839185 446.93030356145727ZM1369.8413816701513 531.1101494083098L1363.8963361771093 531.1101494083098L1338.5424656920782 475.5314678031921Q1339.7914248292718 475.35661352398495 1341.140300697441 475.0818425138023Q1342.4891765656103 474.80707150361974 1343.7631148855476 474.2825086659984L1343.7631148855476 474.2825086659984L1369.8413816701513 531.1101494083098ZM1356.7023315468741 531.1101494083098L1350.7822652365758 531.1101494083098L1325.778103309959 476.8054061231296Q1327.2019167263597 476.8054061231296 1328.7506260564796 476.7054893921541Q1330.2743562038563 476.6055726611786 1331.698169620257 476.43071838197153L1331.698169620257 476.43071838197153L1356.7023315468741 531.1101494083098ZM1343.5882606063406 531.1101494083098L1337.643215113299 531.1101494083098L1312.8139074658889 476.9802604023367L1318.7589529589304 476.9802604023367L1343.5882606063406 531.1101494083098ZM1410.65736627364 531.1101494083098L1404.9121542425491 531.1101494083098L1457.2435420909637 386.50566050402807L1462.9887541220542 386.50566050402807L1410.65736627364 531.1101494083098ZM1385.4783500678159 531.1101494083098L1379.733138036725 531.1101494083098L1432.0645258851396 386.50566050402807L1437.634883637023 386.50566050402807L1385.4783500678159 531.1101494083098ZM1398.067858170728 531.1101494083098L1392.322646139637 531.1101494083098L1444.4791797088442 386.50566050402807L1450.399246019142 386.50566050402807L1398.067858170728 531.1101494083098ZM1516.044538270041 531.1101494083098L1510.29932623895 531.1101494083098L1463.3634418632123 401.4432117848643L1466.2360478787577 393.3499565758493L1516.044538270041 531.1101494083098ZM1503.4550301671288 531.1101494083098L1497.709818136038 531.1101494083098L1457.2435420909637 419.05353561929485L1459.9412938273017 410.78542613107277L1503.4550301671288 531.1101494083098ZM1490.8655220642167 531.1101494083098L1485.1203100331259 531.1101494083098L1450.9487880395077 436.5139843572622L1453.8213940550527 428.4207291482473L1490.8655220642167 531.1101494083098ZM1461.9146492640675 483.2750144537927L1434.2127356011124 483.2750144537927L1436.2110702206223 477.87951098111614L1459.9412938273017 477.87951098111614L1461.9146492640675 483.2750144537927ZM1466.2360478787577 495.31498053633965L1429.9163161691663 495.31498053633965L1431.889671605932 489.919477063663L1464.262692441992 489.919477063663L1466.2360478787577 495.31498053633965ZM1470.557446493448 507.1800923396794L1425.594917554476 507.1800923396794L1427.5682729912419 501.78458886700275L1468.5840910566822 501.78458886700275L1470.557446493448 507.1800923396794ZM1592.8555252074511 510.07767753796867L1592.8555252074511 510.07767753796867Q1576.8438690686285 510.07767753796867 1565.3284658237026 503.1334647351719Q1553.8130625787771 496.21423111511905 1547.7181419892718 484.5239735909864Q1541.5982422170232 472.83371606685375 1541.5982422170232 458.8203945475409L1541.5982422170232 458.8203945475409Q1541.5982422170232 444.6072395662771 1547.7181419892718 432.9919195903761Q1553.8130625787771 421.4015787972189 1565.3284658237026 414.48234517716605Q1576.8438690686285 407.5631115571132 1592.8555252074511 407.5631115571132L1592.8555252074511 407.5631115571132Q1604.5457827315836 407.5631115571132 1613.887997077792 411.4099056996696Q1623.2551906067447 415.28167902497 1629.7247989374077 422.1259750967912L1629.7247989374077 422.1259750967912L1625.9529423430827 425.8978316911161Q1620.007896850041 419.95278619807425 1611.7397873618193 416.5556173449075Q1603.471677873597 413.1334693089969 1592.8555252074511 413.1334693089969L1592.8555252074511 413.1334693089969Q1578.4675159469798 413.1334693089969 1568.1261342910166 419.3283066294774Q1557.7847526350529 425.54812313270185 1552.3892491623765 435.88950478866536Q1546.9937456896996 446.2308864446288 1546.9937456896996 458.8203945475409L1546.9937456896996 458.8203945475409Q1546.9937456896996 471.409902650453 1552.3892491623765 481.7512843064165Q1557.7847526350529 492.09266596237995 1568.1261342910166 498.28750328286054Q1578.4675159469798 504.4823406033411 1592.8555252074511 504.4823406033411L1592.8555252074511 504.4823406033411Q1603.471677873597 504.4823406033411 1611.7397873618193 501.0851717501743Q1620.007896850041 497.6630237142637 1625.9529423430827 491.7179782212219L1625.9529423430827 491.7179782212219L1629.7247989374077 495.4898348155467Q1623.2551906067447 502.15927660816084 1613.887997077792 506.1059874816928Q1604.5457827315836 510.07767753796867 1592.8555252074511 510.07767753796867ZM1592.8555252074511 521.9427893413084L1592.8555252074511 521.9427893413084Q1578.4675159469798 521.9427893413084 1566.8521959710788 516.9969111580215Q1555.261855177922 512.0510329747347 1546.893828958724 503.4082357453545Q1538.5258027395266 494.7904176987183 1534.129466576605 483.34995200202434Q1529.7331304136833 471.9344654880743 1529.7331304136833 458.8203945475409L1529.7331304136833 458.8203945475409Q1529.7331304136833 445.6813444242636 1534.129466576605 434.26585791031357Q1538.5258027395266 422.8503713963635 1546.893828958724 414.1076574360079Q1555.261855177922 405.3899226583962 1566.8521959710788 400.5439612060848Q1578.4675159469798 395.67302057102955 1592.8555252074511 395.67302057102955L1592.8555252074511 395.67302057102955Q1607.068680188715 395.67302057102955 1618.4841667026649 400.4440444751093Q1629.8996532166148 405.2150683791891 1638.1677627048366 413.6580321466182L1638.1677627048366 413.6580321466182L1634.221051831305 417.6297222028941Q1626.8521929218623 409.88617555229337 1616.310977803948 405.5647769376033Q1605.7947418687772 401.26835750565715 1592.8555252074511 401.26835750565715L1592.8555252074511 401.26835750565715Q1575.2202221902767 401.26835750565715 1562.1810887979746 408.98692497351396Q1549.141955405673 416.7304716241146 1542.1228050546447 429.7696050164164Q1535.1286338863601 442.8087384087182 1535.1286338863601 458.8203945475409L1535.1286338863601 458.8203945475409Q1535.1286338863601 474.6322172244126 1542.1228050546447 487.7712673476899Q1549.141955405673 500.88533828822335 1562.1810887979746 508.628884938824Q1575.2202221902767 516.3724315894247 1592.8555252074511 516.3724315894247L1592.8555252074511 516.3724315894247Q1605.7947418687772 516.3724315894247 1616.310977803948 512.0510329747347Q1626.8521929218623 507.7296343600446 1634.221051831305 499.9860877094439L1634.221051831305 499.9860877094439L1638.1677627048366 503.95777776571975Q1629.8996532166148 512.2258872539417 1618.4841667026649 517.0718487062531Q1607.068680188715 521.9427893413084 1592.8555252074511 521.9427893413084ZM1592.8555252074511 533.8079011446482L1592.8555252074511 533.8079011446482Q1575.9446184898488 533.8079011446482 1562.1810887979746 527.9627723825818Q1548.4175591061007 522.1176436205155 1538.5258027395266 511.8761786955275Q1528.634046372953 501.6097345877957 1523.2385429002766 488.04603835787253Q1517.8430394275997 474.4573629452055 1517.8430394275997 458.8203945475409L1517.8430394275997 458.8203945475409Q1517.8430394275997 443.1584469671324 1523.2385429002766 429.5947507372093Q1528.634046372953 416.0060753245423 1538.5258027395266 405.7646103995543Q1548.4175591061007 395.49816629182243 1562.1810887979746 389.6530375297561Q1575.9446184898488 383.8079087676898 1592.8555252074511 383.8079087676898L1592.8555252074511 383.8079087676898Q1609.3917441838948 383.8079087676898 1623.0553571447936 389.47818325054897Q1636.743949288436 395.14845773340824 1646.6357056550096 405.2150683791891L1646.6357056550096 405.2150683791891L1642.8388698779413 408.98692497351396Q1633.6715098109398 399.8195649065125 1621.0070641597958 394.52397816481135Q1608.3176393259087 389.2034122403664 1592.8555252074511 389.2034122403664L1592.8555252074511 389.2034122403664Q1577.0187233478355 389.2034122403664 1564.254360965716 394.59891571304297Q1551.4899985835968 399.9944191857196 1542.3226385165954 409.5364669938791Q1533.1302992668502 419.05353561929485 1528.1844210835634 431.7429604531824Q1523.2385429002766 444.43238528706996 1523.2385429002766 458.8203945475409L1523.2385429002766 458.8203945475409Q1523.2385429002766 473.20840380801184 1528.1844210835634 485.8728494591556Q1533.1302992668502 498.5622742930431 1542.3226385165954 508.0793429184588Q1551.4899985835968 517.6213907266183 1564.254360965716 523.0168941992949Q1577.0187233478355 528.4123976719716 1592.8555252074511 528.4123976719716L1592.8555252074511 528.4123976719716Q1608.3176393259087 528.4123976719716 1621.0070641597958 523.1168109302705Q1633.6715098109398 517.7962450058255 1642.8388698779413 508.628884938824L1642.8388698779413 508.628884938824L1646.6357056550096 512.4007415331489Q1636.743949288436 522.2924978997225 1623.0553571447936 528.0626891135573Q1609.3917441838948 533.8079011446482 1592.8555252074511 533.8079011446482ZM1751.4733356310458 386.50566050402807L1716.577417337855 434.71548319970327L1713.180248484688 430.21923030580615L1744.8288730211752 386.50566050402807L1751.4733356310458 386.50566050402807ZM1766.2360326326748 386.50566050402807L1724.1461097092483 444.43238528706996L1720.7239616733377 439.9361323931728L1759.5665908400606 386.50566050402807L1766.2360326326748 386.50566050402807ZM1780.9737504515601 386.50566050402807L1731.689822897898 454.12430819169276L1728.2676748619874 449.6280552977956L1774.3292878416896 386.50566050402807L1780.9737504515601 386.50566050402807ZM1690.1494419948372 531.1101494083098L1684.7539385221603 531.1101494083098L1684.7539385221603 386.50566050402807L1690.1494419948372 386.50566050402807L1690.1494419948372 531.1101494083098ZM1666.4192183881573 531.1101494083098L1661.023714915481 531.1101494083098L1661.023714915481 386.50566050402807L1666.4192183881573 386.50566050402807L1666.4192183881573 531.1101494083098ZM1678.2843301914972 531.1101494083098L1672.8888267188204 531.1101494083098L1672.8888267188204 386.50566050402807L1678.2843301914972 386.50566050402807L1678.2843301914972 531.1101494083098ZM1782.7722516091185 531.1101494083098L1775.9279555372973 531.1101494083098L1705.7864103925017 440.28584095158703L1709.2085584284123 435.78958805768985L1782.7722516091185 531.1101494083098ZM1767.8347003282825 531.1101494083098L1761.0153834392054 531.1101494083098L1698.592405762266 450.3524515973679L1702.0145537981766 445.6813444242636L1767.8347003282825 531.1101494083098ZM1752.747273950983 531.1101494083098L1745.9029778791619 531.1101494083098L1691.3984011320308 460.4190622431488L1694.645694888734 455.9228093492516L1752.747273950983 531.1101494083098ZM1834.7539308991186 510.07767753796867L1834.7539308991186 510.07767753796867Q1821.9895685169995 510.07767753796867 1813.696479846034 505.1317993546818Q1805.4283703578117 500.1859211713949 1804.7039740582395 491.892832500429L1804.7039740582395 491.892832500429L1809.924623251709 490.4690190840282Q1809.924623251709 496.58891885627713 1816.8438568717615 500.6355464607846Q1823.7880696745583 504.68217406529203 1834.7539308991186 504.68217406529203L1834.7539308991186 504.68217406529203Q1846.0695006820933 504.68217406529203 1853.1885677640971 500.5356297298091Q1860.2826556633572 496.3890853943262 1860.2826556633572 489.919477063663L1860.2826556633572 489.919477063663Q1860.2826556633572 483.7995772914141 1854.3625893530593 480.02772069708925Q1848.4175438600173 476.2558641027644 1838.1760789350296 473.38325808721896L1838.1760789350296 473.38325808721896L1827.0103842485182 470.1359643305155Q1804.7039740582395 463.6663559998523 1793.3884042752647 453.7745996332785Q1782.0478553095463 443.88284326670475 1782.0478553095463 426.6222279906884L1782.0478553095463 426.6222279906884Q1782.0478553095463 414.2075741669835 1788.967088929599 404.5905888105923Q1795.9113017323957 394.9736034542011 1807.8513510839675 389.37826651957346Q1819.8163796182826 383.8079087676898 1834.928785178326 383.8079087676898L1834.928785178326 383.8079087676898Q1848.5923981392243 383.8079087676898 1859.6581760947606 388.2292241133553Q1870.723954050296 392.62556027627704 1877.9928962287631 400.7188154852919Q1885.2868175899744 408.81207069430684 1887.2601730267402 419.60307763966006L1887.2601730267402 419.60307763966006L1882.0395238332708 421.05187023880467Q1880.4408561376626 411.50982243064516 1873.946268624256 404.31581780040966Q1867.4766602935924 397.12181317017416 1857.4100496478118 393.1751022966422Q1847.3434390020307 389.2034122403664 1834.928785178326 389.2034122403664L1834.928785178326 389.2034122403664Q1821.2651722174273 389.2034122403664 1810.5491028203055 394.14929042365327Q1799.8580126059278 399.09516860694015 1793.6631752854473 407.5631115571132Q1787.4433587822227 416.0060753245423 1787.4433587822227 426.9719365491026L1787.4433587822227 426.9719365491026Q1787.4433587822227 441.73463355073164 1797.7847404381864 450.6272226075505Q1808.1261220941497 459.51981166436934 1828.4591768476625 465.11514859899694L1828.4591768476625 465.11514859899694L1839.5998923514298 468.16260889374945Q1852.014546175135 471.5847569296601 1858.8588422469566 476.43071838197153Q1865.6781591360336 481.3016590170268 1865.6781591360336 489.5697685052488L1865.6781591360336 489.5697685052488Q1865.6781591360336 498.73712857225024 1857.2351953686048 504.40740305510946Q1848.7672524184318 510.07767753796867 1834.7539308991186 510.07767753796867ZM1834.7539308991186 521.9427893413084L1834.7539308991186 521.9427893413084Q1817.8430241815167 521.9427893413084 1806.4275376675669 514.4740137008903Q1795.0120511536165 507.00523806047227 1793.013716534107 494.9652719779254L1793.013716534107 494.9652719779254L1798.4092200067835 493.51647937878073Q1799.8580126059278 503.95777776571975 1809.6498522415259 510.2525318171758Q1819.466671059868 516.5472858686319 1834.7539308991186 516.5472858686319L1834.7539308991186 516.5472858686319Q1845.8946464028863 516.5472858686319 1854.3625893530593 513.1251378327212Q1862.8055531204882 509.7029897968105 1867.4766602935924 503.58309002456167Q1872.1477674666967 497.4881694350566 1872.1477674666967 489.5697685052488L1872.1477674666967 489.5697685052488Q1872.1477674666967 478.6039072806885 1863.8796579784748 472.2092364982569Q1855.611548490253 465.8145657158254 1841.0486849505746 461.8678548422934L1841.0486849505746 461.8678548422934L1830.0828237260143 458.8203945475409Q1812.6223749880469 453.94945391248564 1803.2801606418384 446.5805950030431Q1793.9129671128862 439.21173609360045 1793.9129671128862 426.9719365491026L1793.9129671128862 426.9719365491026Q1793.9129671128862 417.80457648210114 1799.2335330373312 410.78542613107277Q1804.529119779032 403.76627578004445 1813.8963133079847 399.719648175537Q1823.2385276541931 395.67302057102955 1834.928785178326 395.67302057102955L1834.928785178326 395.67302057102955Q1845.8946464028863 395.67302057102955 1854.6123811804978 399.02023105870853Q1863.3550951408538 402.3424623636437 1868.9254528927372 408.4623621358926Q1874.495810644621 414.55728272539767 1875.7447697818147 422.65053793441257L1875.7447697818147 422.65053793441257L1870.3492663091383 424.0993305335572Q1869.1003071719442 413.6580321466182 1859.3084675363461 407.3632780951622Q1849.491648718004 401.06852404370613 1834.928785178326 401.06852404370613L1834.928785178326 401.06852404370613Q1824.687320253338 401.06852404370613 1816.594065044323 404.41573453138517Q1808.5008098353082 407.7379658363203 1803.9046402104354 413.5830945983866Q1799.3084705855626 419.42822336045293 1799.3084705855626 426.9719365491026L1799.3084705855626 426.9719365491026Q1799.3084705855626 437.2383806568345 1807.501642525553 443.1584469671324Q1815.6948144655435 449.10349246017427 1831.331782863208 453.59974535407144L1831.331782863208 453.59974535407144L1842.1227898085613 456.64720564882396Q1858.8588422469566 461.31831282192826 1868.201056593165 468.9619427415534Q1877.5432709393735 476.6055726611786 1877.5432709393735 489.5697685052488L1877.5432709393735 489.5697685052488Q1877.5432709393735 499.0868371306645 1872.1477674666967 506.38075849187544Q1866.7522639940203 513.6746798530864 1857.1352786376292 517.7962450058255Q1847.5182932812377 521.9427893413084 1834.7539308991186 521.9427893413084ZM1834.7539308991186 533.8079011446482L1834.7539308991186 533.8079011446482Q1820.7156301970622 533.8079011446482 1809.4749979623189 529.4115649817265Q1798.234365727576 524.990249636061 1790.9654235491093 516.9969111580215Q1783.671502187898 508.97859349723825 1781.5232924719253 498.0127322726779L1781.5232924719253 498.0127322726779L1786.7189624826506 496.58891885627713Q1788.5174636402094 506.28084176089993 1794.912134422641 513.3999088429039Q1801.3068052050726 520.4939967421637 1811.5482701300602 524.4656867984396Q1821.7897350550488 528.4123976719716 1834.7539308991186 528.4123976719716L1834.7539308991186 528.4123976719716Q1849.491648718004 528.4123976719716 1860.5574266735398 523.4665194886848Q1871.6232046290756 518.5206413053977 1877.8180419495561 509.80290652778604Q1884.0378584527807 501.0851717501743 1884.0378584527807 489.5697685052488L1884.0378584527807 489.5697685052488Q1884.0378584527807 474.2825086659984 1873.4217057866344 465.11514859899694Q1862.8055531204882 455.9228093492516 1843.571582407706 450.3524515973679L1843.571582407706 450.3524515973679L1832.9554297415598 447.3049913026154Q1819.8163796182826 443.5331347082905 1812.7972292672544 439.0368818143934Q1805.8030580989698 434.5406289204962 1805.8030580989698 426.9719365491026L1805.8030580989698 426.9719365491026Q1805.8030580989698 418.1542850405154 1814.0711675871917 412.85869829881426Q1822.339277075414 407.5631115571132 1834.928785178326 407.5631115571132L1834.928785178326 407.5631115571132Q1847.1685847228237 407.5631115571132 1855.0620064698878 412.5839272886317Q1862.9804073996957 417.6297222028941 1864.0545122576818 425.72297741190897L1864.0545122576818 425.72297741190897L1858.8588422469566 427.14679082830975Q1858.4841545057984 420.8520367768537 1851.9146294441598 416.90532590332174Q1845.3700835652648 412.95861502978977 1834.928785178326 412.95861502978977L1834.928785178326 412.95861502978977Q1825.037028811752 412.95861502978977 1818.1177951916989 416.7304716241146Q1811.1985615716462 420.50232821843946 1811.1985615716462 426.6222279906884L1811.1985615716462 426.6222279906884Q1811.1985615716462 432.19258574257213 1817.5682531713337 435.61473377848273Q1823.9629239537653 439.0368818143934 1834.379243157961 442.0843421091459L1834.379243157961 442.0843421091459L1844.6456872656922 445.1318024038984Q1866.4025554356062 451.62638991730546 1877.9179586805317 461.9677715732689Q1889.4333619254571 472.30915322923244 1889.4333619254571 489.919477063663L1889.4333619254571 489.919477063663Q1889.4333619254571 502.6838394457822 1882.4891491226604 512.6755125433315Q1875.5699155026073 522.6671856408807 1863.2551784098782 528.2375433927645Q1850.9404413171487 533.8079011446482 1834.7539308991186 533.8079011446482Z " fill="#e24836fb" transform="matrix(0.463101784562536,0,0,0.4631017845625359,0,87.52523028745935)"/></g></svg>